<mxfile host="65bd71144e" pages="4">
    <diagram name="Initialisation" id="JFYd3_J33SihLthPWumc">
        <mxGraphModel dx="846" dy="359" grid="1" gridSize="10" guides="1" tooltips="1" connect="1" arrows="1" fold="1" page="1" pageScale="1" pageWidth="827" pageHeight="1169" math="1" shadow="0">
            <root>
                <mxCell id="0"/>
                <mxCell id="1" parent="0"/>
                <mxCell id="axt0bjJosH1OeV1V98e4-31" value="$$(1,0,0)$$" style="text;strokeColor=none;align=center;fillColor=none;html=1;verticalAlign=middle;whiteSpace=wrap;rounded=0;container=0;" parent="1" vertex="1">
                    <mxGeometry x="440" y="340" width="60" height="30" as="geometry"/>
                </mxCell>
                <mxCell id="axt0bjJosH1OeV1V98e4-32" value="$$(0,1,0)$$" style="text;strokeColor=none;align=center;fillColor=none;html=1;verticalAlign=middle;whiteSpace=wrap;rounded=0;container=0;" parent="1" vertex="1">
                    <mxGeometry x="30" y="450" width="60" height="30" as="geometry"/>
                </mxCell>
                <mxCell id="axt0bjJosH1OeV1V98e4-33" value="&lt;div&gt;$$(1,1,0)$$&lt;/div&gt;" style="text;strokeColor=none;align=center;fillColor=none;html=1;verticalAlign=middle;whiteSpace=wrap;rounded=0;container=0;" parent="1" vertex="1">
                    <mxGeometry x="330" y="450" width="60" height="30" as="geometry"/>
                </mxCell>
                <mxCell id="axt0bjJosH1OeV1V98e4-35" value="&lt;div&gt;$$(1,1,1)$$&lt;/div&gt;" style="text;strokeColor=none;align=center;fillColor=none;html=1;verticalAlign=middle;whiteSpace=wrap;rounded=0;container=0;" parent="1" vertex="1">
                    <mxGeometry x="30" y="220" width="60" height="30" as="geometry"/>
                </mxCell>
                <mxCell id="axt0bjJosH1OeV1V98e4-36" value="&lt;div&gt;$$(1,0,1)$$&lt;/div&gt;" style="text;strokeColor=none;align=center;fillColor=none;html=1;verticalAlign=middle;whiteSpace=wrap;rounded=0;container=0;" parent="1" vertex="1">
                    <mxGeometry x="440" y="110" width="60" height="30" as="geometry"/>
                </mxCell>
                <mxCell id="axt0bjJosH1OeV1V98e4-37" value="&lt;div&gt;$$(1,0,1)$$&lt;/div&gt;" style="text;strokeColor=none;align=center;fillColor=none;html=1;verticalAlign=middle;whiteSpace=wrap;rounded=0;container=0;" parent="1" vertex="1">
                    <mxGeometry x="220" y="110" width="60" height="30" as="geometry"/>
                </mxCell>
                <mxCell id="axt0bjJosH1OeV1V98e4-13" style="rounded=0;orthogonalLoop=1;jettySize=auto;html=1;exitX=0;exitY=0;exitDx=0;exitDy=0;entryX=0;entryY=0;entryDx=0;entryDy=0;endArrow=none;endFill=0;" parent="1" source="axt0bjJosH1OeV1V98e4-1" target="axt0bjJosH1OeV1V98e4-2" edge="1">
                    <mxGeometry relative="1" as="geometry"/>
                </mxCell>
                <mxCell id="axt0bjJosH1OeV1V98e4-1" value="" style="whiteSpace=wrap;html=1;fillColor=none;container=0;" parent="1" vertex="1">
                    <mxGeometry x="90" y="258" width="220.4724409448819" height="192" as="geometry"/>
                </mxCell>
                <mxCell id="axt0bjJosH1OeV1V98e4-15" style="rounded=0;orthogonalLoop=1;jettySize=auto;html=1;exitX=0;exitY=0;exitDx=0;exitDy=0;entryX=0;entryY=0;entryDx=0;entryDy=0;endArrow=none;endFill=0;" parent="1" edge="1">
                    <mxGeometry relative="1" as="geometry">
                        <mxPoint x="310.4724409448819" y="450" as="sourcePoint"/>
                        <mxPoint x="439.99999999999994" y="342" as="targetPoint"/>
                    </mxGeometry>
                </mxCell>
                <mxCell id="axt0bjJosH1OeV1V98e4-16" style="rounded=0;orthogonalLoop=1;jettySize=auto;html=1;exitX=0;exitY=0;exitDx=0;exitDy=0;entryX=0;entryY=0;entryDx=0;entryDy=0;endArrow=none;endFill=0;dashed=1;" parent="1" edge="1">
                    <mxGeometry relative="1" as="geometry">
                        <mxPoint x="90" y="450" as="sourcePoint"/>
                        <mxPoint x="219.5275590551181" y="342" as="targetPoint"/>
                    </mxGeometry>
                </mxCell>
                <mxCell id="axt0bjJosH1OeV1V98e4-30" value="$$(0,0,0)$$" style="text;strokeColor=none;align=center;fillColor=none;html=1;verticalAlign=middle;whiteSpace=wrap;rounded=0;container=0;" parent="1" vertex="1">
                    <mxGeometry x="219.53" y="342" width="60" height="30" as="geometry"/>
                </mxCell>
                <mxCell id="axt0bjJosH1OeV1V98e4-2" value="" style="whiteSpace=wrap;html=1;fillColor=none;dashed=1;strokeColor=default;container=0;" parent="1" vertex="1">
                    <mxGeometry x="219.5275590551181" y="150" width="220.4724409448819" height="192" as="geometry"/>
                </mxCell>
                <mxCell id="axt0bjJosH1OeV1V98e4-5" value="" style="edgeStyle=none;orthogonalLoop=1;jettySize=auto;html=1;rounded=0;endArrow=none;endFill=0;entryX=1;entryY=0;entryDx=0;entryDy=0;" parent="1" target="axt0bjJosH1OeV1V98e4-2" edge="1">
                    <mxGeometry width="80" relative="1" as="geometry">
                        <mxPoint x="219.5275590551181" y="150" as="sourcePoint"/>
                        <mxPoint x="329.76377952755905" y="150" as="targetPoint"/>
                        <Array as="points"/>
                    </mxGeometry>
                </mxCell>
                <mxCell id="axt0bjJosH1OeV1V98e4-7" value="" style="edgeStyle=none;orthogonalLoop=1;jettySize=auto;html=1;rounded=0;exitX=0;exitY=0;exitDx=0;exitDy=0;entryX=0;entryY=0.543;entryDx=0;entryDy=0;entryPerimeter=0;endArrow=none;endFill=0;" parent="1" source="axt0bjJosH1OeV1V98e4-2" target="axt0bjJosH1OeV1V98e4-2" edge="1">
                    <mxGeometry width="80" relative="1" as="geometry">
                        <mxPoint x="365.59055118110234" y="330" as="sourcePoint"/>
                        <mxPoint x="475.8267716535433" y="330" as="targetPoint"/>
                        <Array as="points"/>
                    </mxGeometry>
                </mxCell>
                <mxCell id="axt0bjJosH1OeV1V98e4-9" value="" style="edgeStyle=none;orthogonalLoop=1;jettySize=auto;html=1;rounded=0;exitX=1;exitY=0;exitDx=0;exitDy=0;entryX=1;entryY=1;entryDx=0;entryDy=0;endArrow=none;endFill=0;" parent="1" source="axt0bjJosH1OeV1V98e4-2" target="axt0bjJosH1OeV1V98e4-2" edge="1">
                    <mxGeometry width="100" relative="1" as="geometry">
                        <mxPoint x="296.6929133858268" y="330" as="sourcePoint"/>
                        <mxPoint x="434.48818897637796" y="330" as="targetPoint"/>
                        <Array as="points"/>
                    </mxGeometry>
                </mxCell>
                <mxCell id="axt0bjJosH1OeV1V98e4-10" value="" style="edgeStyle=none;orthogonalLoop=1;jettySize=auto;html=1;rounded=0;exitX=1;exitY=1;exitDx=0;exitDy=0;entryX=0.412;entryY=1;entryDx=0;entryDy=0;entryPerimeter=0;endArrow=none;endFill=0;" parent="1" source="axt0bjJosH1OeV1V98e4-2" target="axt0bjJosH1OeV1V98e4-2" edge="1">
                    <mxGeometry width="100" relative="1" as="geometry">
                        <mxPoint x="296.6929133858268" y="330" as="sourcePoint"/>
                        <mxPoint x="434.48818897637796" y="330" as="targetPoint"/>
                        <Array as="points"/>
                    </mxGeometry>
                </mxCell>
                <mxCell id="axt0bjJosH1OeV1V98e4-14" style="rounded=0;orthogonalLoop=1;jettySize=auto;html=1;exitX=0;exitY=0;exitDx=0;exitDy=0;entryX=0;entryY=0;entryDx=0;entryDy=0;endArrow=none;endFill=0;" parent="1" edge="1">
                    <mxGeometry relative="1" as="geometry">
                        <mxPoint x="310.4724409448819" y="258" as="sourcePoint"/>
                        <mxPoint x="440" y="150" as="targetPoint"/>
                    </mxGeometry>
                </mxCell>
                <mxCell id="axt0bjJosH1OeV1V98e4-34" value="&lt;div&gt;$$(1,1,1)$$&lt;/div&gt;" style="text;strokeColor=none;align=center;fillColor=none;html=1;verticalAlign=middle;whiteSpace=wrap;rounded=0;container=0;" parent="1" vertex="1">
                    <mxGeometry x="250" y="220" width="60" height="30" as="geometry"/>
                </mxCell>
            </root>
        </mxGraphModel>
    </diagram>
    <diagram name="Copie de Initialisation" id="EO4TIueWZO_oFluWL1WA">
        <mxGraphModel dx="988" dy="624" grid="1" gridSize="10" guides="1" tooltips="1" connect="1" arrows="1" fold="1" page="1" pageScale="1" pageWidth="827" pageHeight="1169" math="1" shadow="0">
            <root>
                <mxCell id="D0fYhXYk990MwEBLX6Ug-0"/>
                <mxCell id="D0fYhXYk990MwEBLX6Ug-1" parent="D0fYhXYk990MwEBLX6Ug-0"/>
                <mxCell id="D0fYhXYk990MwEBLX6Ug-2" value="" style="group" parent="D0fYhXYk990MwEBLX6Ug-1" vertex="1" connectable="0">
                    <mxGeometry x="30" y="110" width="470" height="370" as="geometry"/>
                </mxCell>
                <mxCell id="D0fYhXYk990MwEBLX6Ug-3" value="" style="group" parent="D0fYhXYk990MwEBLX6Ug-2" vertex="1" connectable="0">
                    <mxGeometry x="60" y="40" width="350" height="300" as="geometry"/>
                </mxCell>
                <mxCell id="D0fYhXYk990MwEBLX6Ug-4" style="rounded=0;orthogonalLoop=1;jettySize=auto;html=1;exitX=0;exitY=0;exitDx=0;exitDy=0;entryX=0;entryY=0;entryDx=0;entryDy=0;endArrow=none;endFill=0;" parent="D0fYhXYk990MwEBLX6Ug-3" source="D0fYhXYk990MwEBLX6Ug-5" target="D0fYhXYk990MwEBLX6Ug-7" edge="1">
                    <mxGeometry relative="1" as="geometry"/>
                </mxCell>
                <mxCell id="D0fYhXYk990MwEBLX6Ug-5" value="" style="whiteSpace=wrap;html=1;fillColor=none;" parent="D0fYhXYk990MwEBLX6Ug-3" vertex="1">
                    <mxGeometry y="108" width="220.4724409448819" height="192" as="geometry"/>
                </mxCell>
                <mxCell id="D0fYhXYk990MwEBLX6Ug-6" value="" style="group" parent="D0fYhXYk990MwEBLX6Ug-3" vertex="1" connectable="0">
                    <mxGeometry x="129.5275590551181" width="220.4724409448819" height="192" as="geometry"/>
                </mxCell>
                <mxCell id="D0fYhXYk990MwEBLX6Ug-7" value="" style="whiteSpace=wrap;html=1;fillColor=none;dashed=1;strokeColor=default;" parent="D0fYhXYk990MwEBLX6Ug-6" vertex="1">
                    <mxGeometry width="220.4724409448819" height="192" as="geometry"/>
                </mxCell>
                <mxCell id="D0fYhXYk990MwEBLX6Ug-8" value="" style="edgeStyle=none;orthogonalLoop=1;jettySize=auto;html=1;rounded=0;endArrow=none;endFill=0;entryX=1;entryY=0;entryDx=0;entryDy=0;" parent="D0fYhXYk990MwEBLX6Ug-6" target="D0fYhXYk990MwEBLX6Ug-7" edge="1">
                    <mxGeometry width="80" relative="1" as="geometry">
                        <mxPoint as="sourcePoint"/>
                        <mxPoint x="110.23622047244095" as="targetPoint"/>
                        <Array as="points"/>
                    </mxGeometry>
                </mxCell>
                <mxCell id="D0fYhXYk990MwEBLX6Ug-9" value="" style="edgeStyle=none;orthogonalLoop=1;jettySize=auto;html=1;rounded=0;exitX=0;exitY=0;exitDx=0;exitDy=0;entryX=0;entryY=0.543;entryDx=0;entryDy=0;entryPerimeter=0;endArrow=none;endFill=0;" parent="D0fYhXYk990MwEBLX6Ug-6" source="D0fYhXYk990MwEBLX6Ug-7" target="D0fYhXYk990MwEBLX6Ug-7" edge="1">
                    <mxGeometry width="80" relative="1" as="geometry">
                        <mxPoint x="146.06299212598424" y="180" as="sourcePoint"/>
                        <mxPoint x="256.2992125984252" y="180" as="targetPoint"/>
                        <Array as="points"/>
                    </mxGeometry>
                </mxCell>
                <mxCell id="D0fYhXYk990MwEBLX6Ug-10" value="" style="edgeStyle=none;orthogonalLoop=1;jettySize=auto;html=1;rounded=0;exitX=1;exitY=0;exitDx=0;exitDy=0;entryX=1;entryY=1;entryDx=0;entryDy=0;endArrow=none;endFill=0;" parent="D0fYhXYk990MwEBLX6Ug-6" source="D0fYhXYk990MwEBLX6Ug-7" target="D0fYhXYk990MwEBLX6Ug-7" edge="1">
                    <mxGeometry width="100" relative="1" as="geometry">
                        <mxPoint x="77.16535433070867" y="180" as="sourcePoint"/>
                        <mxPoint x="214.96062992125982" y="180" as="targetPoint"/>
                        <Array as="points"/>
                    </mxGeometry>
                </mxCell>
                <mxCell id="D0fYhXYk990MwEBLX6Ug-11" value="" style="edgeStyle=none;orthogonalLoop=1;jettySize=auto;html=1;rounded=0;exitX=1;exitY=1;exitDx=0;exitDy=0;entryX=0.412;entryY=1;entryDx=0;entryDy=0;entryPerimeter=0;endArrow=none;endFill=0;" parent="D0fYhXYk990MwEBLX6Ug-6" source="D0fYhXYk990MwEBLX6Ug-7" target="D0fYhXYk990MwEBLX6Ug-7" edge="1">
                    <mxGeometry width="100" relative="1" as="geometry">
                        <mxPoint x="77.16535433070867" y="180" as="sourcePoint"/>
                        <mxPoint x="214.96062992125982" y="180" as="targetPoint"/>
                        <Array as="points"/>
                    </mxGeometry>
                </mxCell>
                <mxCell id="D0fYhXYk990MwEBLX6Ug-12" style="rounded=0;orthogonalLoop=1;jettySize=auto;html=1;exitX=0;exitY=0;exitDx=0;exitDy=0;entryX=0;entryY=0;entryDx=0;entryDy=0;endArrow=none;endFill=0;" parent="D0fYhXYk990MwEBLX6Ug-6" edge="1">
                    <mxGeometry relative="1" as="geometry">
                        <mxPoint x="90.94488188976378" y="108" as="sourcePoint"/>
                        <mxPoint x="220.4724409448819" as="targetPoint"/>
                    </mxGeometry>
                </mxCell>
                <mxCell id="D0fYhXYk990MwEBLX6Ug-13" value="&lt;div&gt;$$(1,1,1)$$&lt;/div&gt;" style="text;strokeColor=none;align=center;fillColor=none;html=1;verticalAlign=middle;whiteSpace=wrap;rounded=0;" parent="D0fYhXYk990MwEBLX6Ug-6" vertex="1">
                    <mxGeometry x="30.472440944881896" y="70" width="60" height="30" as="geometry"/>
                </mxCell>
                <mxCell id="SfTMctTZlDxCOXWkATNd-1" value="" style="shape=waypoint;sketch=0;size=6;pointerEvents=1;points=[];fillColor=none;resizable=0;rotatable=0;perimeter=centerPerimeter;snapToPoint=1;strokeColor=#FF3333;" vertex="1" parent="D0fYhXYk990MwEBLX6Ug-6">
                    <mxGeometry x="80.4724409448819" y="100" width="20" height="20" as="geometry"/>
                </mxCell>
                <mxCell id="D0fYhXYk990MwEBLX6Ug-14" style="rounded=0;orthogonalLoop=1;jettySize=auto;html=1;exitX=0;exitY=0;exitDx=0;exitDy=0;entryX=0;entryY=0;entryDx=0;entryDy=0;endArrow=none;endFill=0;" parent="D0fYhXYk990MwEBLX6Ug-3" edge="1">
                    <mxGeometry relative="1" as="geometry">
                        <mxPoint x="220.4724409448819" y="300" as="sourcePoint"/>
                        <mxPoint x="349.99999999999994" y="192" as="targetPoint"/>
                    </mxGeometry>
                </mxCell>
                <mxCell id="D0fYhXYk990MwEBLX6Ug-15" style="rounded=0;orthogonalLoop=1;jettySize=auto;html=1;exitX=0;exitY=0;exitDx=0;exitDy=0;entryX=0;entryY=0;entryDx=0;entryDy=0;endArrow=none;endFill=0;dashed=1;" parent="D0fYhXYk990MwEBLX6Ug-3" edge="1">
                    <mxGeometry relative="1" as="geometry">
                        <mxPoint y="300" as="sourcePoint"/>
                        <mxPoint x="129.5275590551181" y="192" as="targetPoint"/>
                    </mxGeometry>
                </mxCell>
                <mxCell id="D0fYhXYk990MwEBLX6Ug-16" value="$$(0,0,0)$$" style="text;strokeColor=none;align=center;fillColor=none;html=1;verticalAlign=middle;whiteSpace=wrap;rounded=0;" parent="D0fYhXYk990MwEBLX6Ug-3" vertex="1">
                    <mxGeometry x="129.53" y="192" width="60" height="30" as="geometry"/>
                </mxCell>
                <mxCell id="D0fYhXYk990MwEBLX6Ug-17" value="$$(1,0,0)$$" style="text;strokeColor=none;align=center;fillColor=none;html=1;verticalAlign=middle;whiteSpace=wrap;rounded=0;" parent="D0fYhXYk990MwEBLX6Ug-2" vertex="1">
                    <mxGeometry x="410" y="230" width="60" height="30" as="geometry"/>
                </mxCell>
                <mxCell id="D0fYhXYk990MwEBLX6Ug-18" value="$$(0,1,0)$$" style="text;strokeColor=none;align=center;fillColor=none;html=1;verticalAlign=middle;whiteSpace=wrap;rounded=0;" parent="D0fYhXYk990MwEBLX6Ug-2" vertex="1">
                    <mxGeometry y="340" width="60" height="30" as="geometry"/>
                </mxCell>
                <mxCell id="D0fYhXYk990MwEBLX6Ug-19" value="&lt;div&gt;$$(1,1,0)$$&lt;/div&gt;" style="text;strokeColor=none;align=center;fillColor=none;html=1;verticalAlign=middle;whiteSpace=wrap;rounded=0;" parent="D0fYhXYk990MwEBLX6Ug-2" vertex="1">
                    <mxGeometry x="300" y="340" width="60" height="30" as="geometry"/>
                </mxCell>
                <mxCell id="D0fYhXYk990MwEBLX6Ug-20" value="&lt;div&gt;$$(1,1,1)$$&lt;/div&gt;" style="text;strokeColor=none;align=center;fillColor=none;html=1;verticalAlign=middle;whiteSpace=wrap;rounded=0;" parent="D0fYhXYk990MwEBLX6Ug-2" vertex="1">
                    <mxGeometry y="110" width="60" height="30" as="geometry"/>
                </mxCell>
                <mxCell id="D0fYhXYk990MwEBLX6Ug-21" value="&lt;div&gt;$$(1,0,1)$$&lt;/div&gt;" style="text;strokeColor=none;align=center;fillColor=none;html=1;verticalAlign=middle;whiteSpace=wrap;rounded=0;" parent="D0fYhXYk990MwEBLX6Ug-2" vertex="1">
                    <mxGeometry x="410" width="60" height="30" as="geometry"/>
                </mxCell>
                <mxCell id="D0fYhXYk990MwEBLX6Ug-22" value="&lt;div&gt;$$(1,0,1)$$&lt;/div&gt;" style="text;strokeColor=none;align=center;fillColor=none;html=1;verticalAlign=middle;whiteSpace=wrap;rounded=0;" parent="D0fYhXYk990MwEBLX6Ug-2" vertex="1">
                    <mxGeometry x="190" width="60" height="30" as="geometry"/>
                </mxCell>
            </root>
        </mxGraphModel>
    </diagram>
    <diagram name="Copie de Copie de Initialisation" id="4CbSd-XGcGGlYuBCBV30">
        <mxGraphModel dx="818" dy="517" grid="1" gridSize="10" guides="1" tooltips="1" connect="1" arrows="1" fold="1" page="1" pageScale="1" pageWidth="827" pageHeight="1169" math="1" shadow="0">
            <root>
                <mxCell id="T6BFeiPHOBdpTvKP_rpb-0"/>
                <mxCell id="T6BFeiPHOBdpTvKP_rpb-1" parent="T6BFeiPHOBdpTvKP_rpb-0"/>
                <mxCell id="T6BFeiPHOBdpTvKP_rpb-2" value="" style="group" vertex="1" connectable="0" parent="T6BFeiPHOBdpTvKP_rpb-1">
                    <mxGeometry x="100" y="230" width="483.87" height="370" as="geometry"/>
                </mxCell>
                <mxCell id="T6BFeiPHOBdpTvKP_rpb-3" value="" style="group" vertex="1" connectable="0" parent="T6BFeiPHOBdpTvKP_rpb-2">
                    <mxGeometry x="60" y="40" width="423.87" height="300" as="geometry"/>
                </mxCell>
                <mxCell id="T6BFeiPHOBdpTvKP_rpb-4" style="rounded=0;orthogonalLoop=1;jettySize=auto;html=1;exitX=0;exitY=0;exitDx=0;exitDy=0;entryX=0;entryY=0;entryDx=0;entryDy=0;endArrow=none;endFill=0;" edge="1" parent="T6BFeiPHOBdpTvKP_rpb-3" source="T6BFeiPHOBdpTvKP_rpb-5" target="T6BFeiPHOBdpTvKP_rpb-7">
                    <mxGeometry relative="1" as="geometry"/>
                </mxCell>
                <mxCell id="T6BFeiPHOBdpTvKP_rpb-5" value="" style="whiteSpace=wrap;html=1;fillColor=none;" vertex="1" parent="T6BFeiPHOBdpTvKP_rpb-3">
                    <mxGeometry y="108" width="220.4724409448819" height="192" as="geometry"/>
                </mxCell>
                <mxCell id="T6BFeiPHOBdpTvKP_rpb-6" value="" style="group" vertex="1" connectable="0" parent="T6BFeiPHOBdpTvKP_rpb-3">
                    <mxGeometry x="129.5275590551181" width="239.11" height="252.87" as="geometry"/>
                </mxCell>
                <mxCell id="T6BFeiPHOBdpTvKP_rpb-7" value="" style="whiteSpace=wrap;html=1;fillColor=none;dashed=1;strokeColor=default;" vertex="1" parent="T6BFeiPHOBdpTvKP_rpb-6">
                    <mxGeometry width="220.4724409448819" height="192" as="geometry"/>
                </mxCell>
                <mxCell id="T6BFeiPHOBdpTvKP_rpb-8" value="" style="edgeStyle=none;orthogonalLoop=1;jettySize=auto;html=1;rounded=0;endArrow=none;endFill=0;entryX=1;entryY=0;entryDx=0;entryDy=0;" edge="1" parent="T6BFeiPHOBdpTvKP_rpb-6" target="T6BFeiPHOBdpTvKP_rpb-7">
                    <mxGeometry width="80" relative="1" as="geometry">
                        <mxPoint as="sourcePoint"/>
                        <mxPoint x="110.23622047244095" as="targetPoint"/>
                        <Array as="points"/>
                    </mxGeometry>
                </mxCell>
                <mxCell id="T6BFeiPHOBdpTvKP_rpb-9" value="" style="edgeStyle=none;orthogonalLoop=1;jettySize=auto;html=1;rounded=0;exitX=0;exitY=0;exitDx=0;exitDy=0;entryX=0;entryY=0.543;entryDx=0;entryDy=0;entryPerimeter=0;endArrow=none;endFill=0;" edge="1" parent="T6BFeiPHOBdpTvKP_rpb-6" source="T6BFeiPHOBdpTvKP_rpb-7" target="T6BFeiPHOBdpTvKP_rpb-7">
                    <mxGeometry width="80" relative="1" as="geometry">
                        <mxPoint x="146.06299212598424" y="180" as="sourcePoint"/>
                        <mxPoint x="256.2992125984252" y="180" as="targetPoint"/>
                        <Array as="points"/>
                    </mxGeometry>
                </mxCell>
                <mxCell id="T6BFeiPHOBdpTvKP_rpb-10" value="" style="edgeStyle=none;orthogonalLoop=1;jettySize=auto;html=1;rounded=0;exitX=1;exitY=0;exitDx=0;exitDy=0;entryX=1;entryY=1;entryDx=0;entryDy=0;endArrow=none;endFill=0;" edge="1" parent="T6BFeiPHOBdpTvKP_rpb-6" source="T6BFeiPHOBdpTvKP_rpb-7" target="T6BFeiPHOBdpTvKP_rpb-7">
                    <mxGeometry width="100" relative="1" as="geometry">
                        <mxPoint x="77.16535433070867" y="180" as="sourcePoint"/>
                        <mxPoint x="214.96062992125982" y="180" as="targetPoint"/>
                        <Array as="points"/>
                    </mxGeometry>
                </mxCell>
                <mxCell id="T6BFeiPHOBdpTvKP_rpb-11" value="" style="edgeStyle=none;orthogonalLoop=1;jettySize=auto;html=1;rounded=0;exitX=1;exitY=1;exitDx=0;exitDy=0;entryX=0.412;entryY=1;entryDx=0;entryDy=0;entryPerimeter=0;endArrow=none;endFill=0;" edge="1" parent="T6BFeiPHOBdpTvKP_rpb-6" source="T6BFeiPHOBdpTvKP_rpb-7" target="T6BFeiPHOBdpTvKP_rpb-7">
                    <mxGeometry width="100" relative="1" as="geometry">
                        <mxPoint x="77.16535433070867" y="180" as="sourcePoint"/>
                        <mxPoint x="214.96062992125982" y="180" as="targetPoint"/>
                        <Array as="points"/>
                    </mxGeometry>
                </mxCell>
                <mxCell id="T6BFeiPHOBdpTvKP_rpb-12" style="rounded=0;orthogonalLoop=1;jettySize=auto;html=1;exitX=0;exitY=0;exitDx=0;exitDy=0;entryX=0;entryY=0;entryDx=0;entryDy=0;endArrow=none;endFill=0;" edge="1" parent="T6BFeiPHOBdpTvKP_rpb-6">
                    <mxGeometry relative="1" as="geometry">
                        <mxPoint x="90.94488188976378" y="108" as="sourcePoint"/>
                        <mxPoint x="220.4724409448819" as="targetPoint"/>
                    </mxGeometry>
                </mxCell>
                <mxCell id="T6BFeiPHOBdpTvKP_rpb-13" value="&lt;div&gt;$$(1,1,1)$$&lt;/div&gt;" style="text;strokeColor=none;align=center;fillColor=none;html=1;verticalAlign=middle;whiteSpace=wrap;rounded=0;" vertex="1" parent="T6BFeiPHOBdpTvKP_rpb-6">
                    <mxGeometry x="30.472440944881896" y="70" width="60" height="30" as="geometry"/>
                </mxCell>
                <mxCell id="T6BFeiPHOBdpTvKP_rpb-14" value="" style="shape=waypoint;sketch=0;size=6;pointerEvents=1;points=[];fillColor=none;resizable=0;rotatable=0;perimeter=centerPerimeter;snapToPoint=1;strokeColor=#FF3333;" vertex="1" parent="T6BFeiPHOBdpTvKP_rpb-6">
                    <mxGeometry x="80.4724409448819" y="100" width="20" height="20" as="geometry"/>
                </mxCell>
                <mxCell id="MMbs5eICiidOQH96IDkA-20" value="" style="shape=waypoint;sketch=0;size=6;pointerEvents=1;points=[];fillColor=none;resizable=0;rotatable=0;perimeter=centerPerimeter;snapToPoint=1;" vertex="1" parent="T6BFeiPHOBdpTvKP_rpb-6">
                    <mxGeometry x="27.472440944881896" y="115" width="20" height="20" as="geometry"/>
                </mxCell>
                <mxCell id="MMbs5eICiidOQH96IDkA-39" value="" style="edgeStyle=none;orthogonalLoop=1;jettySize=auto;html=1;rounded=0;exitX=0;exitY=1;exitDx=0;exitDy=0;" edge="1" parent="T6BFeiPHOBdpTvKP_rpb-6" source="T6BFeiPHOBdpTvKP_rpb-7" target="MMbs5eICiidOQH96IDkA-20">
                    <mxGeometry width="80" relative="1" as="geometry">
                        <mxPoint x="-9.527559055118104" y="180" as="sourcePoint"/>
                        <mxPoint x="70.4724409448819" y="180" as="targetPoint"/>
                        <Array as="points"/>
                    </mxGeometry>
                </mxCell>
                <mxCell id="T6BFeiPHOBdpTvKP_rpb-15" style="rounded=0;orthogonalLoop=1;jettySize=auto;html=1;exitX=0;exitY=0;exitDx=0;exitDy=0;entryX=0;entryY=0;entryDx=0;entryDy=0;endArrow=none;endFill=0;" edge="1" parent="T6BFeiPHOBdpTvKP_rpb-3">
                    <mxGeometry relative="1" as="geometry">
                        <mxPoint x="220.4724409448819" y="300" as="sourcePoint"/>
                        <mxPoint x="349.99999999999994" y="192" as="targetPoint"/>
                    </mxGeometry>
                </mxCell>
                <mxCell id="T6BFeiPHOBdpTvKP_rpb-16" style="rounded=0;orthogonalLoop=1;jettySize=auto;html=1;exitX=0;exitY=0;exitDx=0;exitDy=0;entryX=0;entryY=0;entryDx=0;entryDy=0;endArrow=none;endFill=0;dashed=1;" edge="1" parent="T6BFeiPHOBdpTvKP_rpb-3">
                    <mxGeometry relative="1" as="geometry">
                        <mxPoint y="300" as="sourcePoint"/>
                        <mxPoint x="129.5275590551181" y="192" as="targetPoint"/>
                    </mxGeometry>
                </mxCell>
                <mxCell id="T6BFeiPHOBdpTvKP_rpb-17" value="$$(0,0,0)$$" style="text;strokeColor=none;align=center;fillColor=none;html=1;verticalAlign=middle;whiteSpace=wrap;rounded=0;" vertex="1" parent="T6BFeiPHOBdpTvKP_rpb-3">
                    <mxGeometry x="129.53" y="192" width="60" height="30" as="geometry"/>
                </mxCell>
                <mxCell id="T6BFeiPHOBdpTvKP_rpb-18" value="$$(1,0,0)$$" style="text;strokeColor=none;align=center;fillColor=none;html=1;verticalAlign=middle;whiteSpace=wrap;rounded=0;" vertex="1" parent="T6BFeiPHOBdpTvKP_rpb-2">
                    <mxGeometry x="410" y="230" width="60" height="30" as="geometry"/>
                </mxCell>
                <mxCell id="T6BFeiPHOBdpTvKP_rpb-19" value="$$(0,1,0)$$" style="text;strokeColor=none;align=center;fillColor=none;html=1;verticalAlign=middle;whiteSpace=wrap;rounded=0;" vertex="1" parent="T6BFeiPHOBdpTvKP_rpb-2">
                    <mxGeometry y="340" width="60" height="30" as="geometry"/>
                </mxCell>
                <mxCell id="T6BFeiPHOBdpTvKP_rpb-20" value="&lt;div&gt;$$(1,1,0)$$&lt;/div&gt;" style="text;strokeColor=none;align=center;fillColor=none;html=1;verticalAlign=middle;whiteSpace=wrap;rounded=0;" vertex="1" parent="T6BFeiPHOBdpTvKP_rpb-2">
                    <mxGeometry x="300" y="340" width="60" height="30" as="geometry"/>
                </mxCell>
                <mxCell id="T6BFeiPHOBdpTvKP_rpb-21" value="&lt;div&gt;$$(1,1,1)$$&lt;/div&gt;" style="text;strokeColor=none;align=center;fillColor=none;html=1;verticalAlign=middle;whiteSpace=wrap;rounded=0;" vertex="1" parent="T6BFeiPHOBdpTvKP_rpb-2">
                    <mxGeometry y="110" width="60" height="30" as="geometry"/>
                </mxCell>
                <mxCell id="T6BFeiPHOBdpTvKP_rpb-22" value="&lt;div&gt;$$(1,0,1)$$&lt;/div&gt;" style="text;strokeColor=none;align=center;fillColor=none;html=1;verticalAlign=middle;whiteSpace=wrap;rounded=0;" vertex="1" parent="T6BFeiPHOBdpTvKP_rpb-2">
                    <mxGeometry x="410" width="60" height="30" as="geometry"/>
                </mxCell>
                <mxCell id="T6BFeiPHOBdpTvKP_rpb-23" value="&lt;div&gt;$$(1,0,1)$$&lt;/div&gt;" style="text;strokeColor=none;align=center;fillColor=none;html=1;verticalAlign=middle;whiteSpace=wrap;rounded=0;" vertex="1" parent="T6BFeiPHOBdpTvKP_rpb-2">
                    <mxGeometry x="190" width="60" height="30" as="geometry"/>
                </mxCell>
            </root>
        </mxGraphModel>
    </diagram>
    <diagram name="Copie de Copie de Copie de Initialisation" id="OemwvbQczvsIs4EcZqRG">
        <mxGraphModel dx="846" dy="359" grid="1" gridSize="10" guides="1" tooltips="1" connect="1" arrows="1" fold="1" page="1" pageScale="1" pageWidth="827" pageHeight="1169" math="1" shadow="0">
            <root>
                <mxCell id="42Ck2SKJ7VlDDYmLUroX-0"/>
                <mxCell id="42Ck2SKJ7VlDDYmLUroX-1" parent="42Ck2SKJ7VlDDYmLUroX-0"/>
                <mxCell id="42Ck2SKJ7VlDDYmLUroX-2" value="" style="group" parent="42Ck2SKJ7VlDDYmLUroX-1" vertex="1" connectable="0">
                    <mxGeometry x="100" y="230" width="573.1775590551182" height="370" as="geometry"/>
                </mxCell>
                <mxCell id="42Ck2SKJ7VlDDYmLUroX-3" value="" style="group" parent="42Ck2SKJ7VlDDYmLUroX-2" vertex="1" connectable="0">
                    <mxGeometry x="60" y="40" width="513.1775590551182" height="300" as="geometry"/>
                </mxCell>
                <mxCell id="42Ck2SKJ7VlDDYmLUroX-4" style="rounded=0;orthogonalLoop=1;jettySize=auto;html=1;exitX=0;exitY=0;exitDx=0;exitDy=0;entryX=0;entryY=0;entryDx=0;entryDy=0;endArrow=none;endFill=0;" parent="42Ck2SKJ7VlDDYmLUroX-3" source="42Ck2SKJ7VlDDYmLUroX-5" target="42Ck2SKJ7VlDDYmLUroX-7" edge="1">
                    <mxGeometry relative="1" as="geometry"/>
                </mxCell>
                <mxCell id="42Ck2SKJ7VlDDYmLUroX-5" value="" style="whiteSpace=wrap;html=1;fillColor=none;" parent="42Ck2SKJ7VlDDYmLUroX-3" vertex="1">
                    <mxGeometry y="108" width="220.4724409448819" height="192" as="geometry"/>
                </mxCell>
                <mxCell id="42Ck2SKJ7VlDDYmLUroX-6" value="" style="group" parent="42Ck2SKJ7VlDDYmLUroX-3" vertex="1" connectable="0">
                    <mxGeometry x="129.5275590551181" width="383.6500000000001" height="252.87" as="geometry"/>
                </mxCell>
                <mxCell id="42Ck2SKJ7VlDDYmLUroX-7" value="" style="whiteSpace=wrap;html=1;fillColor=none;dashed=1;strokeColor=default;" parent="42Ck2SKJ7VlDDYmLUroX-6" vertex="1">
                    <mxGeometry width="220.4724409448819" height="192" as="geometry"/>
                </mxCell>
                <mxCell id="42Ck2SKJ7VlDDYmLUroX-8" value="" style="edgeStyle=none;orthogonalLoop=1;jettySize=auto;html=1;rounded=0;endArrow=none;endFill=0;entryX=1;entryY=0;entryDx=0;entryDy=0;" parent="42Ck2SKJ7VlDDYmLUroX-6" target="42Ck2SKJ7VlDDYmLUroX-7" edge="1">
                    <mxGeometry width="80" relative="1" as="geometry">
                        <mxPoint as="sourcePoint"/>
                        <mxPoint x="110.23622047244095" as="targetPoint"/>
                        <Array as="points"/>
                    </mxGeometry>
                </mxCell>
                <mxCell id="42Ck2SKJ7VlDDYmLUroX-9" value="" style="edgeStyle=none;orthogonalLoop=1;jettySize=auto;html=1;rounded=0;exitX=0;exitY=0;exitDx=0;exitDy=0;entryX=0;entryY=0.543;entryDx=0;entryDy=0;entryPerimeter=0;endArrow=none;endFill=0;" parent="42Ck2SKJ7VlDDYmLUroX-6" source="42Ck2SKJ7VlDDYmLUroX-7" target="42Ck2SKJ7VlDDYmLUroX-7" edge="1">
                    <mxGeometry width="80" relative="1" as="geometry">
                        <mxPoint x="146.06299212598424" y="180" as="sourcePoint"/>
                        <mxPoint x="256.2992125984252" y="180" as="targetPoint"/>
                        <Array as="points"/>
                    </mxGeometry>
                </mxCell>
                <mxCell id="42Ck2SKJ7VlDDYmLUroX-10" value="" style="edgeStyle=none;orthogonalLoop=1;jettySize=auto;html=1;rounded=0;exitX=1;exitY=0;exitDx=0;exitDy=0;entryX=1;entryY=1;entryDx=0;entryDy=0;endArrow=none;endFill=0;" parent="42Ck2SKJ7VlDDYmLUroX-6" source="42Ck2SKJ7VlDDYmLUroX-7" target="42Ck2SKJ7VlDDYmLUroX-7" edge="1">
                    <mxGeometry width="100" relative="1" as="geometry">
                        <mxPoint x="77.16535433070867" y="180" as="sourcePoint"/>
                        <mxPoint x="214.96062992125982" y="180" as="targetPoint"/>
                        <Array as="points"/>
                    </mxGeometry>
                </mxCell>
                <mxCell id="42Ck2SKJ7VlDDYmLUroX-11" value="" style="edgeStyle=none;orthogonalLoop=1;jettySize=auto;html=1;rounded=0;exitX=1;exitY=1;exitDx=0;exitDy=0;entryX=0.412;entryY=1;entryDx=0;entryDy=0;entryPerimeter=0;endArrow=none;endFill=0;" parent="42Ck2SKJ7VlDDYmLUroX-6" source="42Ck2SKJ7VlDDYmLUroX-7" target="42Ck2SKJ7VlDDYmLUroX-7" edge="1">
                    <mxGeometry width="100" relative="1" as="geometry">
                        <mxPoint x="77.16535433070867" y="180" as="sourcePoint"/>
                        <mxPoint x="214.96062992125982" y="180" as="targetPoint"/>
                        <Array as="points"/>
                    </mxGeometry>
                </mxCell>
                <mxCell id="42Ck2SKJ7VlDDYmLUroX-12" style="rounded=0;orthogonalLoop=1;jettySize=auto;html=1;exitX=0;exitY=0;exitDx=0;exitDy=0;entryX=0;entryY=0;entryDx=0;entryDy=0;endArrow=none;endFill=0;" parent="42Ck2SKJ7VlDDYmLUroX-6" edge="1">
                    <mxGeometry relative="1" as="geometry">
                        <mxPoint x="90.94488188976378" y="108" as="sourcePoint"/>
                        <mxPoint x="220.4724409448819" as="targetPoint"/>
                    </mxGeometry>
                </mxCell>
                <mxCell id="42Ck2SKJ7VlDDYmLUroX-13" value="&lt;div&gt;$$(1,1,1)$$&lt;/div&gt;" style="text;strokeColor=none;align=center;fillColor=none;html=1;verticalAlign=middle;whiteSpace=wrap;rounded=0;" parent="42Ck2SKJ7VlDDYmLUroX-6" vertex="1">
                    <mxGeometry x="30.472440944881896" y="70" width="60" height="30" as="geometry"/>
                </mxCell>
                <mxCell id="42Ck2SKJ7VlDDYmLUroX-14" value="" style="shape=waypoint;sketch=0;size=6;pointerEvents=1;points=[];fillColor=none;resizable=0;rotatable=0;perimeter=centerPerimeter;snapToPoint=1;strokeColor=#FF3333;" parent="42Ck2SKJ7VlDDYmLUroX-6" vertex="1">
                    <mxGeometry x="80.4724409448819" y="100" width="20" height="20" as="geometry"/>
                </mxCell>
                <mxCell id="42Ck2SKJ7VlDDYmLUroX-15" value="" style="shape=waypoint;sketch=0;size=6;pointerEvents=1;points=[];fillColor=none;resizable=0;rotatable=0;perimeter=centerPerimeter;snapToPoint=1;" parent="42Ck2SKJ7VlDDYmLUroX-6" vertex="1">
                    <mxGeometry x="27.472440944881896" y="115" width="20" height="20" as="geometry"/>
                </mxCell>
                <mxCell id="42Ck2SKJ7VlDDYmLUroX-16" value="" style="edgeStyle=none;orthogonalLoop=1;jettySize=auto;html=1;rounded=0;exitX=0;exitY=1;exitDx=0;exitDy=0;" parent="42Ck2SKJ7VlDDYmLUroX-6" source="42Ck2SKJ7VlDDYmLUroX-7" target="42Ck2SKJ7VlDDYmLUroX-15" edge="1">
                    <mxGeometry width="80" relative="1" as="geometry">
                        <mxPoint x="-9.527559055118104" y="180" as="sourcePoint"/>
                        <mxPoint x="70.4724409448819" y="180" as="targetPoint"/>
                        <Array as="points"/>
                    </mxGeometry>
                </mxCell>
                <mxCell id="7ZRGA9jwmmvDXgxt6nCz-3" value="" style="shape=trapezoid;perimeter=trapezoidPerimeter;whiteSpace=wrap;html=1;fixedSize=1;rotation=25;opacity=30;fillColor=#FFD966;size=128.39244094488186;" parent="42Ck2SKJ7VlDDYmLUroX-6" vertex="1">
                    <mxGeometry x="-227.8" y="28.22" width="554.86" height="138.34" as="geometry"/>
                </mxCell>
                <mxCell id="42Ck2SKJ7VlDDYmLUroX-17" style="rounded=0;orthogonalLoop=1;jettySize=auto;html=1;exitX=0;exitY=0;exitDx=0;exitDy=0;entryX=0;entryY=0;entryDx=0;entryDy=0;endArrow=none;endFill=0;" parent="42Ck2SKJ7VlDDYmLUroX-3" edge="1">
                    <mxGeometry relative="1" as="geometry">
                        <mxPoint x="220.4724409448819" y="300" as="sourcePoint"/>
                        <mxPoint x="349.99999999999994" y="192" as="targetPoint"/>
                    </mxGeometry>
                </mxCell>
                <mxCell id="42Ck2SKJ7VlDDYmLUroX-18" style="rounded=0;orthogonalLoop=1;jettySize=auto;html=1;exitX=0;exitY=0;exitDx=0;exitDy=0;entryX=0;entryY=0;entryDx=0;entryDy=0;endArrow=none;endFill=0;dashed=1;" parent="42Ck2SKJ7VlDDYmLUroX-3" edge="1">
                    <mxGeometry relative="1" as="geometry">
                        <mxPoint y="300" as="sourcePoint"/>
                        <mxPoint x="129.5275590551181" y="192" as="targetPoint"/>
                    </mxGeometry>
                </mxCell>
                <mxCell id="42Ck2SKJ7VlDDYmLUroX-19" value="$$(0,0,0)$$" style="text;strokeColor=none;align=center;fillColor=none;html=1;verticalAlign=middle;whiteSpace=wrap;rounded=0;" parent="42Ck2SKJ7VlDDYmLUroX-3" vertex="1">
                    <mxGeometry x="129.53" y="192" width="60" height="30" as="geometry"/>
                </mxCell>
                <mxCell id="42Ck2SKJ7VlDDYmLUroX-20" value="$$(1,0,0)$$" style="text;strokeColor=none;align=center;fillColor=none;html=1;verticalAlign=middle;whiteSpace=wrap;rounded=0;" parent="42Ck2SKJ7VlDDYmLUroX-2" vertex="1">
                    <mxGeometry x="410" y="230" width="60" height="30" as="geometry"/>
                </mxCell>
                <mxCell id="42Ck2SKJ7VlDDYmLUroX-21" value="$$(0,1,0)$$" style="text;strokeColor=none;align=center;fillColor=none;html=1;verticalAlign=middle;whiteSpace=wrap;rounded=0;" parent="42Ck2SKJ7VlDDYmLUroX-2" vertex="1">
                    <mxGeometry y="340" width="60" height="30" as="geometry"/>
                </mxCell>
                <mxCell id="42Ck2SKJ7VlDDYmLUroX-22" value="&lt;div&gt;$$(1,1,0)$$&lt;/div&gt;" style="text;strokeColor=none;align=center;fillColor=none;html=1;verticalAlign=middle;whiteSpace=wrap;rounded=0;" parent="42Ck2SKJ7VlDDYmLUroX-2" vertex="1">
                    <mxGeometry x="300" y="340" width="60" height="30" as="geometry"/>
                </mxCell>
                <mxCell id="42Ck2SKJ7VlDDYmLUroX-23" value="&lt;div&gt;$$(1,1,1)$$&lt;/div&gt;" style="text;strokeColor=none;align=center;fillColor=none;html=1;verticalAlign=middle;whiteSpace=wrap;rounded=0;" parent="42Ck2SKJ7VlDDYmLUroX-2" vertex="1">
                    <mxGeometry y="110" width="60" height="30" as="geometry"/>
                </mxCell>
                <mxCell id="42Ck2SKJ7VlDDYmLUroX-24" value="&lt;div&gt;$$(1,0,1)$$&lt;/div&gt;" style="text;strokeColor=none;align=center;fillColor=none;html=1;verticalAlign=middle;whiteSpace=wrap;rounded=0;" parent="42Ck2SKJ7VlDDYmLUroX-2" vertex="1">
                    <mxGeometry x="410" width="60" height="30" as="geometry"/>
                </mxCell>
                <mxCell id="42Ck2SKJ7VlDDYmLUroX-25" value="&lt;div&gt;$$(1,0,1)$$&lt;/div&gt;" style="text;strokeColor=none;align=center;fillColor=none;html=1;verticalAlign=middle;whiteSpace=wrap;rounded=0;" parent="42Ck2SKJ7VlDDYmLUroX-2" vertex="1">
                    <mxGeometry x="190" width="60" height="30" as="geometry"/>
                </mxCell>
            </root>
        </mxGraphModel>
    </diagram>
</mxfile>